# xmcd
#
# Track frame offsets:
#	150
#	16236
#	33541
#	54117
#	74314
#	91622
#	110648
#	137508
#	158577
#	178252
#	198408
#
# Disc length: 2859 seconds
#
# Revision: 1
# Processed by: cddbd v1.5.2PL0 Copyright (c) Steve Scherf et al.
# Submitted via: audiograbber 1.83.01
#
DISCID=870b290b
DTITLE=Victorius - The Awakening
DYEAR=2013
DGENRE=Heavy Metal
TTITLE0=Age of tyranny
TTITLE1=Starfire
TTITLE2=The awakening
TTITLE3=Lake of hope
TTITLE4=Under burning skies
TTITLE5=Black sun
TTITLE6=Demon legions
TTITLE7=Through the dead lands
TTITLE8=Call for resistance
TTITLE9=Kings reborn
TTITLE10=Metalheart
EXTD=
EXTT0=
EXTT1=
EXTT2=
EXTT3=
EXTT4=
EXTT5=
EXTT6=
EXTT7=
EXTT8=
EXTT9=
EXTT10=
PLAYORDER=
